{
  "accessors": [
    {
      "bufferView": 2,
      "componentType": 5126,
      "count": 65532,
      "max": [
        0.8673149943351746,
        1.7128100395202637,
        0.8222360014915466
      ],
      "min": [
        -0.8868589997291565,
        0.5700330138206482,
        -0.6971700191497803
      ],
      "type": "VEC3"
    },
    {
      "bufferView": 2,
      "byteOffset": 786384,
      "componentType": 5126,
      "count": 65532,
      "max": [
        1.0,
        1.0,
        1.0
      ],
      "min": [
        -1.0,
        -1.0,
        -1.0
      ],
      "type": "VEC3"
    },
    {
      "bufferView": 1,
      "componentType": 5126,
      "count": 65532,
      "max": [
        0.9912940263748169,
        0.9920240044593811
      ],
      "min": [
        0.007992999628186226,
        0.007814000360667706
      ],
      "type": "VEC2"
    },
    {
      "bufferView": 0,
      "componentType": 5125,
      "count": 364491,
      "type": "SCALAR"
    },
    {
      "bufferView": 2,
      "byteOffset": 1572768,
      "componentType": 5126,
      "count": 20766,
      "max": [
        0.7925559878349304,
        1.6768900156021118,
        0.8271440267562866
      ],
      "min": [
        -0.9501190185546875,
        0.5751820206642151,
        -0.4957920014858246
      ],
      "type": "VEC3"
    },
    {
      "bufferView": 2,
      "byteOffset": 1821960,
      "componentType": 5126,
      "count": 20766,
      "max": [
        1.0,
        1.0,
        1.0
      ],
      "min": [
        -1.0,
        -1.0,
        -1.0
      ],
      "type": "VEC3"
    },
    {
      "bufferView": 1,
      "byteOffset": 524256,
      "componentType": 5126,
      "count": 20766,
      "max": [
        0.9677919745445251,
        0.9920510053634644
      ],
      "min": [
        0.007958999834954739,
        0.10046300292015076
      ],
      "type": "VEC2"
    },
    {
      "bufferView": 0,
      "byteOffset": 1457964,
      "componentType": 5125,
      "count": 114225,
      "type": "SCALAR"
    }
  ],
  "asset": {
    "extras": {
      "author": "jtressle (https://sketchfab.com/jtressle)",
      "license": "CC-BY-4.0 (http://creativecommons.org/licenses/by/4.0/)",
      "source": "https://sketchfab.com/3d-models/sesame-bagel-848ad9fa849e418ba6510ef9f31070f8",
      "title": "Sesame Bagel"
    },
    "generator": "Sketchfab-12.67.0",
    "version": "2.0"
  },
  "bufferViews": [
    {
      "buffer": 0,
      "byteLength": 1914864,
      "name": "floatBufferViews",
      "target": 34963
    },
    {
      "buffer": 0,
      "byteLength": 690384,
      "byteOffset": 1914864,
      "byteStride": 8,
      "name": "floatBufferViews",
      "target": 34962
    },
    {
      "buffer": 0,
      "byteLength": 2071152,
      "byteOffset": 2605248,
      "byteStride": 12,
      "name": "floatBufferViews",
      "target": 34962
    }
  ],
  "buffers": [
    {
      "byteLength": 4676400,
      "uri": "scene.bin"
    }
  ],
  "extensionsUsed": [
    "KHR_materials_unlit"
  ],
  "images": [
    {
      "uri": "textures/material_0_baseColor.jpeg"
    }
  ],
  "materials": [
    {
      "doubleSided": true,
      "extensions": {
        "KHR_materials_unlit": {}
      },
      "name": "material_0",
      "pbrMetallicRoughness": {
        "baseColorTexture": {
          "index": 0
        },
        "metallicFactor": 0.0
      }
    }
  ],
  "meshes": [
    {
      "name": "Object_0",
      "primitives": [
        {
          "attributes": {
            "NORMAL": 1,
            "POSITION": 0,
            "TEXCOORD_0": 2
          },
          "indices": 3,
          "material": 0,
          "mode": 4
        }
      ]
    },
    {
      "name": "Object_1",
      "primitives": [
        {
          "attributes": {
            "NORMAL": 5,
            "POSITION": 4,
            "TEXCOORD_0": 6
          },
          "indices": 7,
          "material": 0,
          "mode": 4
        }
      ]
    }
  ],
  "nodes": [
    {
      "children": [
        1
      ],
      "matrix": [
        0.8740946054458618,
        0.3929050266742706,
        0.2856295108795167,
        0.0,
        0.4381959140300751,
        -0.38403797149658186,
        -0.812711000442505,
        0.0,
        -0.20962567627429962,
        0.8355479836463929,
        -0.5078548789024351,
        0.0,
        -0.48012131452560425,
        0.4548694491386414,
        -0.16425836086273182,
        1.0
      ],
      "name": "Sketchfab_model"
    },
    {
      "children": [
        2,
        3
      ],
      "name": "obj.obj.cleaner.gles"
    },
    {
      "mesh": 0,
      "name": "Object_2"
    },
    {
      "mesh": 1,
      "name": "Object_3"
    }
  ],
  "samplers": [
    {
      "magFilter": 9729,
      "minFilter": 9987,
      "wrapS": 10497,
      "wrapT": 10497
    }
  ],
  "scene": 0,
  "scenes": [
    {
      "name": "Sketchfab_Scene",
      "nodes": [
        0
      ]
    }
  ],
  "textures": [
    {
      "sampler": 0,
      "source": 0
    }
  ]
}
